<svg xmlns="http://www.w3.org/2000/svg" xmlns:xlink="http://www.w3.org/1999/xlink" xmlns:s="https://github.com/nturley/netlistsvg" width="522" height="344">
  <style>svg {
    stroke:#000;
    fill:none;
  }
  text {
    fill:#000;
    stroke:none;
    font-size:10px;
    font-weight: bold;
    font-family: "Courier New", monospace;
  }
  .nodelabel {
    text-anchor: middle;
  }
  .inputPortLabel {
    text-anchor: end;
  }
  .splitjoinBody {
    fill:#000;
  }</style>
  <g s:type="add" transform="translate(77,103.5)" s:width="25" s:height="25" id="cell_$add$src/updown_counter.sv:14$2">
    <s:alias val="$add"/>
    <circle r="12.5" cx="12.5" cy="12.5" class="cell_$add$src/updown_counter.sv:14$2"/>
    <line x1="7.5" x2="17.5" y1="12.5" y2="12.5" class="cell_$add$src/updown_counter.sv:14$2"/>
    <line x1="12.5" x2="12.5" y1="7.5" y2="17.5" class="cell_$add$src/updown_counter.sv:14$2"/>
    <g s:x="3" s:y="5" s:pid="A"/>
    <g s:x="3" s:y="20" s:pid="B"/>
    <g s:x="25" s:y="12.5" s:pid="Y"/>
  </g>
  <g s:type="dff" transform="translate(415,292)" s:width="30" s:height="40" id="cell_$procdff$12">
    <s:alias val="$dff"/>
    <s:alias val="$_DFF_"/>
    <s:alias val="$_DFF_P_"/>
    <rect width="30" height="40" x="0" y="0" class="cell_$procdff$12"/>
    <path d="M0,35 L5,30 L0,25" class="cell_$procdff$12"/>
    <g s:x="30" s:y="10" s:pid="Q"/>
    <g s:x="0" s:y="30" s:pid="CLK"/>
    <g s:x="0" s:y="30" s:pid="C"/>
    <g s:x="0" s:y="10" s:pid="D"/>
  </g>
  <g s:type="mux" transform="translate(353.3333333333333,197)" s:width="20" s:height="40" id="cell_$procmux$10">
    <s:alias val="$pmux"/>
    <s:alias val="$mux"/>
    <s:alias val="$_MUX_"/>
    <path d="M0,0 L20,10 L20,30 L0,40 Z" class="cell_$procmux$10"/>
    <g s:x="0" s:y="10" s:pid="A"/>
    <g s:x="0" s:y="30" s:pid="B"/>
    <g s:x="10" s:y="35" s:pid="S"/>
    <g s:x="20" s:y="20" s:pid="Y"/>
  </g>
  <g s:type="mux" transform="translate(219.33333333333334,63.5)" s:width="20" s:height="40" id="cell_$procmux$5">
    <s:alias val="$pmux"/>
    <s:alias val="$mux"/>
    <s:alias val="$_MUX_"/>
    <path d="M0,0 L20,10 L20,30 L0,40 Z" class="cell_$procmux$5"/>
    <g s:x="0" s:y="10" s:pid="A"/>
    <g s:x="0" s:y="30" s:pid="B"/>
    <g s:x="10" s:y="35" s:pid="S"/>
    <g s:x="20" s:y="20" s:pid="Y"/>
  </g>
  <g s:type="mux" transform="translate(291.6666666666667,53.5)" s:width="20" s:height="40" id="cell_$procmux$7">
    <s:alias val="$pmux"/>
    <s:alias val="$mux"/>
    <s:alias val="$_MUX_"/>
    <path d="M0,0 L20,10 L20,30 L0,40 Z" class="cell_$procmux$7"/>
    <g s:x="0" s:y="10" s:pid="A"/>
    <g s:x="0" s:y="30" s:pid="B"/>
    <g s:x="10" s:y="35" s:pid="S"/>
    <g s:x="20" s:y="20" s:pid="Y"/>
  </g>
  <g s:type="sub" transform="translate(77,43.5)" s:width="25" s:height="25" id="cell_$sub$src/updown_counter.sv:16$3">
    <s:alias val="$sub"/>
    <circle r="12.5" cx="12.5" cy="12.5" class="cell_$sub$src/updown_counter.sv:16$3"/>
    <line x1="7.5" x2="17.5" y1="12.5" y2="12.5" class="cell_$sub$src/updown_counter.sv:16$3"/>
    <g s:x="3" s:y="5" s:pid="A"/>
    <g s:x="3" s:y="20" s:pid="B"/>
    <g s:x="25" s:y="12.5" s:pid="Y"/>
  </g>
  <g s:type="inputExt" transform="translate(350,312)" s:width="30" s:height="20" id="cell_clk">
    <text x="15" y="-4" class="nodelabel cell_clk" s:attribute="ref">clk</text>
    <s:alias val="$_inputExt_"/>
    <path d="M0,0 L0,20 L15,20 L30,10 L15,0 Z" class="cell_clk"/>
    <g s:x="28" s:y="10" s:pid="Y"/>
  </g>
  <g s:type="inputExt" transform="translate(285,282)" s:width="30" s:height="20" id="cell_reset">
    <text x="15" y="-4" class="nodelabel cell_reset" s:attribute="ref">reset</text>
    <s:alias val="$_inputExt_"/>
    <path d="M0,0 L0,20 L15,20 L30,10 L15,0 Z" class="cell_reset"/>
    <g s:x="28" s:y="10" s:pid="Y"/>
  </g>
  <g s:type="inputExt" transform="translate(214,166)" s:width="30" s:height="20" id="cell_enable">
    <text x="15" y="-4" class="nodelabel cell_enable" s:attribute="ref">enable</text>
    <s:alias val="$_inputExt_"/>
    <path d="M0,0 L0,20 L15,20 L30,10 L15,0 Z" class="cell_enable"/>
    <g s:x="28" s:y="10" s:pid="Y"/>
  </g>
  <g s:type="inputExt" transform="translate(137,136)" s:width="30" s:height="20" id="cell_up_down">
    <text x="15" y="-4" class="nodelabel cell_up_down" s:attribute="ref">up_down</text>
    <s:alias val="$_inputExt_"/>
    <path d="M0,0 L0,20 L15,20 L30,10 L15,0 Z" class="cell_up_down"/>
    <g s:x="28" s:y="10" s:pid="Y"/>
  </g>
  <g s:type="outputExt" transform="translate(480,292)" s:width="30" s:height="20" id="cell_count">
    <text x="15" y="-4" class="nodelabel cell_count" s:attribute="ref">count</text>
    <s:alias val="$_outputExt_"/>
    <path d="M30,0 L30,20 L15,20 L0,10 L15,0 Z" class="cell_count"/>
    <g s:x="0" s:y="10" s:pid="A"/>
  </g>
  <g s:type="constant" transform="translate(12,113.5)" s:width="30" s:height="20" id="cell_00000000000000000000000000000001">
    <text x="15" y="-4" class="nodelabel cell_00000000000000000000000000000001" s:attribute="ref">0x1</text>
    <s:alias val="$_constant_"/>
    <rect width="30" height="20" class="cell_00000000000000000000000000000001"/>
    <g s:x="30" s:y="10" s:pid="Y"/>
  </g>
  <g s:type="constant" transform="translate(285,217)" s:width="30" s:height="20" id="cell_0000">
    <text x="15" y="-4" class="nodelabel cell_0000" s:attribute="ref">0x0</text>
    <s:alias val="$_constant_"/>
    <rect width="30" height="20" class="cell_0000"/>
    <g s:x="30" s:y="10" s:pid="Y"/>
  </g>
  <g s:type="split" transform="translate(155,23)" s:width="5" s:height="40" id="cell_$split$,50,51,52,53,58,59,60,61,62,63,64,65,66,67,68,69,70,71,72,73,74,75,76,77,78,79,80,81,82,83,84,85,">
    <rect width="5" height="20" class="splitjoinBody" s:generic="body"/>
    <s:alias val="$_split_"/>
    <g s:x="0" s:y="20" s:pid="in"/>
    <g transform="translate(4,10)" s:x="4" s:y="10" s:pid="out0">
      <text x="5" y="-4">0:3</text>
    </g>
  </g>
  <g s:type="split" transform="translate(155,83)" s:width="5" s:height="40" id="cell_$split$,10,11,12,13,14,15,16,17,18,19,20,21,22,23,24,25,26,27,28,29,30,31,32,33,34,35,36,37,38,39,40,41,">
    <rect width="5" height="20" class="splitjoinBody" s:generic="body"/>
    <s:alias val="$_split_"/>
    <g s:x="0" s:y="20" s:pid="in"/>
    <g transform="translate(4,10)" s:x="4" s:y="10" s:pid="out0">
      <text x="5" y="-4">0:3</text>
    </g>
  </g>
  <line x1="445" x2="455" y1="302" y2="302" class="net_6,7,8,9"/>
  <line x1="455" x2="455" y1="302" y2="12" class="net_6,7,8,9"/>
  <line x1="455" x2="335" y1="12" y2="12" class="net_6,7,8,9"/>
  <line x1="335" x2="335" y1="12" y2="196" class="net_6,7,8,9"/>
  <line x1="335" x2="62" y1="196" y2="196" class="net_6,7,8,9"/>
  <line x1="62" x2="62" y1="196" y2="108.5" class="net_6,7,8,9"/>
  <circle cx="335" cy="12" r="2" style="fill:#000" class="net_6,7,8,9"/>
  <line x1="62" x2="80" y1="108.5" y2="108.5" class="net_6,7,8,9"/>
  <line x1="445" x2="455" y1="302" y2="302" class="net_6,7,8,9"/>
  <line x1="455" x2="455" y1="302" y2="12" class="net_6,7,8,9"/>
  <line x1="455" x2="260" y1="12" y2="12" class="net_6,7,8,9"/>
  <line x1="260" x2="260" y1="12" y2="63.5" class="net_6,7,8,9"/>
  <circle cx="260" cy="12" r="2" style="fill:#000" class="net_6,7,8,9"/>
  <line x1="260" x2="291.6666666666667" y1="63.5" y2="63.5" class="net_6,7,8,9"/>
  <line x1="445" x2="455" y1="302" y2="302" class="net_6,7,8,9"/>
  <line x1="455" x2="455" y1="302" y2="12" class="net_6,7,8,9"/>
  <line x1="455" x2="62" y1="12" y2="12" class="net_6,7,8,9"/>
  <line x1="62" x2="62" y1="12" y2="48.5" class="net_6,7,8,9"/>
  <circle cx="455" cy="302" r="2" style="fill:#000" class="net_6,7,8,9"/>
  <line x1="62" x2="80" y1="48.5" y2="48.5" class="net_6,7,8,9"/>
  <line x1="445" x2="480" y1="302" y2="302" class="net_6,7,8,9"/>
  <line x1="42" x2="80" y1="123.5" y2="123.5" class="net_86,87,88,89,90,91,92,93,94,95,96,97,98,99,100,101,102,103,104,105,106,107,108,109,110,111,112,113,114,115,116,117"/>
  <line x1="42" x2="52" y1="123.5" y2="123.5" class="net_86,87,88,89,90,91,92,93,94,95,96,97,98,99,100,101,102,103,104,105,106,107,108,109,110,111,112,113,114,115,116,117"/>
  <line x1="52" x2="52" y1="123.5" y2="63.5" class="net_86,87,88,89,90,91,92,93,94,95,96,97,98,99,100,101,102,103,104,105,106,107,108,109,110,111,112,113,114,115,116,117"/>
  <circle cx="52" cy="123.5" r="2" style="fill:#000" class="net_86,87,88,89,90,91,92,93,94,95,96,97,98,99,100,101,102,103,104,105,106,107,108,109,110,111,112,113,114,115,116,117"/>
  <line x1="52" x2="80" y1="63.5" y2="63.5" class="net_86,87,88,89,90,91,92,93,94,95,96,97,98,99,100,101,102,103,104,105,106,107,108,109,110,111,112,113,114,115,116,117"/>
  <line x1="378" x2="415" y1="322" y2="322" class="net_2"/>
  <line x1="373.3333333333333" x2="390" y1="217" y2="217" class="net_42,43,44,45"/>
  <line x1="390" x2="390" y1="217" y2="302" class="net_42,43,44,45"/>
  <line x1="390" x2="415" y1="302" y2="302" class="net_42,43,44,45"/>
  <line x1="311.6666666666667" x2="325" y1="73.5" y2="73.5" class="net_46,47,48,49"/>
  <line x1="325" x2="325" y1="73.5" y2="207" class="net_46,47,48,49"/>
  <line x1="325" x2="353.3333333333333" y1="207" y2="207" class="net_46,47,48,49"/>
  <line x1="315" x2="353.3333333333333" y1="227" y2="227" class="net_118,119,120,121"/>
  <line x1="313" x2="363.3333333333333" y1="292" y2="292" class="net_3"/>
  <line x1="363.3333333333333" x2="363.3333333333333" y1="292" y2="232" class="net_3"/>
  <line x1="160" x2="189" y1="33.5" y2="33.5" class="net_50,51,52,53"/>
  <line x1="189" x2="189" y1="33.5" y2="73.5" class="net_50,51,52,53"/>
  <line x1="189" x2="219.33333333333334" y1="73.5" y2="73.5" class="net_50,51,52,53"/>
  <line x1="160" x2="219.33333333333334" y1="93.5" y2="93.5" class="net_10,11,12,13"/>
  <line x1="165" x2="229.33333333333334" y1="146" y2="146" class="net_5"/>
  <line x1="229.33333333333334" x2="229.33333333333334" y1="146" y2="98.5" class="net_5"/>
  <line x1="239.33333333333334" x2="291.6666666666667" y1="83.5" y2="83.5" class="net_54,55,56,57"/>
  <line x1="242" x2="301.6666666666667" y1="176" y2="176" class="net_4"/>
  <line x1="301.6666666666667" x2="301.6666666666667" y1="176" y2="88.5" class="net_4"/>
  <line x1="102" x2="155.5" y1="56" y2="56" class="net_50,51,52,53,58,59,60,61,62,63,64,65,66,67,68,69,70,71,72,73,74,75,76,77,78,79,80,81,82,83,84,85"/>
  <line x1="155.5" x2="155.5" y1="56" y2="44" class="net_50,51,52,53,58,59,60,61,62,63,64,65,66,67,68,69,70,71,72,73,74,75,76,77,78,79,80,81,82,83,84,85"/>
  <line x1="102" x2="155.5" y1="116" y2="116" class="net_10,11,12,13,14,15,16,17,18,19,20,21,22,23,24,25,26,27,28,29,30,31,32,33,34,35,36,37,38,39,40,41"/>
  <line x1="155.5" x2="155.5" y1="116" y2="104" class="net_10,11,12,13,14,15,16,17,18,19,20,21,22,23,24,25,26,27,28,29,30,31,32,33,34,35,36,37,38,39,40,41"/>
</svg>
